<svg id="Layer_1" data-name="Layer 1" xmlns="http://www.w3.org/2000/svg" xmlns:xlink="http://www.w3.org/1999/xlink" viewBox="0 0 720 241.92"><defs><style>.cls-1{fill:#252764;}.cls-2{fill:#00519f;}.cls-3{fill:url(#linear-gradient);}</style><linearGradient id="linear-gradient" x1="52.67" y1="21.28" x2="104.8" y2="177.03" gradientUnits="userSpaceOnUse"><stop offset="0" stop-color="#00519f"/><stop offset="1" stop-color="#252764"/></linearGradient></defs><title>BROKER_ONE_LOGO-LINEAR-4C</title><path class="cls-1" d="M403.9,148.53a25.89,25.89,0,0,0-7.91-6.1,22.62,22.62,0,0,0-10.28-2.34,23.51,23.51,0,0,0-10.12,2.19,25.36,25.36,0,0,0-8,5.88,27.94,27.94,0,0,0-5.27,8.48,26.89,26.89,0,0,0-1.92,10,27.71,27.71,0,0,0,1.81,9.81,27.11,27.11,0,0,0,5.13,8.52,25.62,25.62,0,0,0,7.95,6,24.28,24.28,0,0,0,20.32.08,26.07,26.07,0,0,0,8-5.84,26.65,26.65,0,0,0,5.28-8.45A27.32,27.32,0,0,0,409,157,28.09,28.09,0,0,0,403.9,148.53Zm-18.26,35.93a13.86,13.86,0,0,1-6.38-1.45,15.22,15.22,0,0,1-4.88-3.92,18.18,18.18,0,0,1-3.13-5.71,20.64,20.64,0,0,1,0-13.23,18.09,18.09,0,0,1,3.06-5.67,15.68,15.68,0,0,1,4.85-4,13.64,13.64,0,0,1,6.51-1.52,13.49,13.49,0,0,1,6.27,1.45,15.63,15.63,0,0,1,4.85,3.89,17.86,17.86,0,0,1,3.12,5.63,20.67,20.67,0,0,1,1.1,6.73,20.9,20.9,0,0,1-1,6.49,18.51,18.51,0,0,1-3,5.71,15.41,15.41,0,0,1-4.81,4.06A13.43,13.43,0,0,1,385.64,184.45Z"/><polygon class="cls-1" points="496.75 140.52 495.96 140.52 495.96 141.3 495.96 175.68 468.26 140.74 468.02 140.44 467.64 140.44 461.34 140.44 460.56 140.44 460.56 141.23 460.56 192.12 460.56 192.9 461.34 192.9 469.36 192.9 470.15 192.9 470.15 192.12 470.15 158.5 497.57 192.61 497.81 192.9 498.18 192.9 504.85 192.9 505.63 192.9 505.63 192.12 505.63 141.3 505.63 140.52 504.85 140.52 496.75 140.52"/><polygon class="cls-1" points="594.23 184.24 568.13 184.24 568.13 170.25 590.07 170.25 590.85 170.25 590.85 169.47 590.85 162.8 590.85 162.02 590.07 162.02 568.13 162.02 568.13 149.1 593.58 149.1 594.37 149.1 594.37 148.32 594.37 141.23 594.37 140.44 593.58 140.44 559.32 140.44 558.54 140.44 558.54 141.23 558.54 192.12 558.54 192.9 559.32 192.9 594.23 192.9 595.01 192.9 595.01 192.12 595.01 185.02 595.01 184.24 594.23 184.24"/><path class="cls-2" d="M290.52,100.68a16.37,16.37,0,0,1-1.73,7.6,17.29,17.29,0,0,1-4.64,5.68,20.88,20.88,0,0,1-6.86,3.55,28,28,0,0,1-8.39,1.23H235.43V48.64h36.14a13.85,13.85,0,0,1,6.61,1.58,16.53,16.53,0,0,1,5,4.1A18.82,18.82,0,0,1,286.42,60a19.29,19.29,0,0,1,1.14,6.47,18.82,18.82,0,0,1-2.62,9.63,16,16,0,0,1-7.45,6.66A17.82,17.82,0,0,1,287,89.27,18.52,18.52,0,0,1,290.52,100.68Zm-44-42.45V78.86h20.34a9,9,0,0,0,3.8-.79,10.42,10.42,0,0,0,3.06-2.12,9.3,9.3,0,0,0,2.07-3.21,11.19,11.19,0,0,0,.74-4.15,10.86,10.86,0,0,0-2.57-7.45,8.31,8.31,0,0,0-6.52-2.91ZM279.17,98.6a11.72,11.72,0,0,0-.74-4.15,11.85,11.85,0,0,0-2-3.46,9.26,9.26,0,0,0-3-2.37,8.49,8.49,0,0,0-3.85-.89h-23.1v21.42H268.9a9.79,9.79,0,0,0,4-.84,10.34,10.34,0,0,0,3.26-2.27,10.54,10.54,0,0,0,2.17-3.36A10.7,10.7,0,0,0,279.17,98.6Z"/><path class="cls-2" d="M321.82,118.74V48.64h30.51a19.47,19.47,0,0,1,8.74,2,22.42,22.42,0,0,1,6.86,5.18,24.46,24.46,0,0,1,4.49,7.31A22.4,22.4,0,0,1,374,71.45a23.41,23.41,0,0,1-1,6.81,23.91,23.91,0,0,1-2.76,6A19.43,19.43,0,0,1,366,89.07a17.88,17.88,0,0,1-5.63,3l16.49,26.66H364.27l-15.2-24.39H332.88v24.39Zm11.06-34.16h19.35a8.91,8.91,0,0,0,4.29-1,10.16,10.16,0,0,0,3.31-2.86,14.49,14.49,0,0,0,2.17-4.2,15.85,15.85,0,0,0,.79-5,13.57,13.57,0,0,0-.94-5,14.46,14.46,0,0,0-2.47-4.15,11.72,11.72,0,0,0-3.55-2.81,9.1,9.1,0,0,0-4.2-1H332.88Z"/><path class="cls-2" d="M436,119.24a30.74,30.74,0,0,1-13.67-3,34.06,34.06,0,0,1-10.61-8,36.09,36.09,0,0,1-6.86-11.4,36.91,36.91,0,0,1-2.42-13.13,35.81,35.81,0,0,1,2.57-13.43A37.27,37.27,0,0,1,412,58.91a33.74,33.74,0,0,1,10.66-7.85,31.18,31.18,0,0,1,13.48-2.91,30,30,0,0,1,13.67,3.11,34.43,34.43,0,0,1,10.56,8.15,37.42,37.42,0,0,1,6.81,11.4,36.56,36.56,0,0,1-.1,26.41,35.45,35.45,0,0,1-7.06,11.3,34.68,34.68,0,0,1-10.71,7.8A30.94,30.94,0,0,1,436,119.24ZM413.64,83.69a29.49,29.49,0,0,0,1.58,9.58,26,26,0,0,0,4.49,8.19,21.94,21.94,0,0,0,7.06,5.68,20.06,20.06,0,0,0,9.28,2.12,19.47,19.47,0,0,0,9.43-2.22,22.21,22.21,0,0,0,7-5.87A26.48,26.48,0,0,0,456.78,93a29.76,29.76,0,0,0,1.48-9.28,29.41,29.41,0,0,0-1.58-9.63,25.58,25.58,0,0,0-4.49-8.1,22.48,22.48,0,0,0-7-5.63,19.56,19.56,0,0,0-9.13-2.12,19.76,19.76,0,0,0-9.48,2.22,22.58,22.58,0,0,0-7,5.78,25.88,25.88,0,0,0-4.39,8.15A29.3,29.3,0,0,0,413.64,83.69Z"/><path class="cls-2" d="M500.82,118.74v-70h11.06v36l33-36.14h12.24l-27.64,31,29.22,39.1H546.33l-23.7-32.29L511.88,97.61v21.13Z"/><path class="cls-2" d="M633.81,109v9.77H585.73V48.64h47.19v9.77H596.78V78.36h31.3v9.18h-31.3V109Z"/><path class="cls-2" d="M665,118.74V48.64h30.51a19.47,19.47,0,0,1,8.74,2,22.42,22.42,0,0,1,6.86,5.18,24.46,24.46,0,0,1,4.49,7.31,22.4,22.4,0,0,1,1.63,8.34,23.41,23.41,0,0,1-1,6.81,23.91,23.91,0,0,1-2.76,6,19.43,19.43,0,0,1-4.34,4.79,17.88,17.88,0,0,1-5.63,3L720,118.74H707.46l-15.2-24.39H676.06v24.39Zm11.06-34.16h19.35a8.91,8.91,0,0,0,4.29-1A10.16,10.16,0,0,0,703,80.68a14.49,14.49,0,0,0,2.17-4.2,15.85,15.85,0,0,0,.79-5,13.57,13.57,0,0,0-.94-5,14.46,14.46,0,0,0-2.47-4.15A11.72,11.72,0,0,0,699,59.46a9.1,9.1,0,0,0-4.2-1H676.06Z"/><path class="cls-3" d="M98.3,100.8,172,153.87v14.34A73.7,73.7,0,0,1,25.88,181.82l10.74-7.74a62,62,0,0,0,123.66-5.87v-8.33l-62-44.63L0,186V171.59l24.6-17.72Zm0-43.41L57.85,86.52v.06l-21.52,15.5V11.73h62a61.5,61.5,0,0,1,60.51,74.79L169,93.86A73.16,73.16,0,0,0,98.3,0H24.6V124.92L98.3,71.84l97.87,70.48V127.86Z"/></svg>