<svg viewBox="0 0 800.000000 600.000000" xmlns="http://www.w3.org/2000/svg">
  <g transform="translate(-270.000000,800.000000) scale(0.17000,-0.17000)" fill="#e50341" stroke="none">
    <path d="M3800 4679 c-107 -12 -253 -45 -362 -80 -175 -58 -375 -164 -521
-276 -90 -69 -230 -206 -304 -298 -169 -210 -295 -475 -352 -740 -24 -109 -41
-259 -41 -356 l0 -71 33 6 c17 4 46 10 62 13 l31 5 74 83 75 83 90 40 c50 22
93 38 97 36 3 -2 34 -49 67 -103 l62 -99 50 -12 50 -12 132 -139 c72 -76 138
-139 144 -139 31 0 172 65 240 111 l75 51 32 -29 c17 -16 106 -98 198 -181
l166 -152 250 0 251 0 37 63 c20 34 41 67 46 74 l9 12 49 -29 50 -29 24 32
c13 18 53 77 90 133 l67 101 109 27 109 28 126 104 127 103 92 -107 c50 -60
103 -122 118 -140 l26 -31 81 -7 81 -7 57 -44 57 -44 8 15 c5 8 11 80 15 158
l6 143 -12 110 c-38 353 -166 665 -381 934 -84 104 -209 229 -307 304 -201
154 -458 273 -708 326 -180 39 -396 50 -575 30z" />
    <path d="M2530 2240 l-185 -5 19 -9 19 -9 286 7 286 7 9 9 10 10 -129 -2 c-72
-1 -213 -5 -315 -8z" />
    <path d="M3755 2214 l-50 -15 -100 7 c-108 7 -214 8 -450 2 -82 -1 -166 0
-185 5 l-35 7 23 -22 23 -23 432 2 432 3 48 11 c26 6 47 15 47 19 0 23 -111
25 -185 4z" />
    <path d="M4147 2223 l-7 -11 83 -6 c45 -3 129 -8 187 -11 l105 -5 60 14 60 14
-85 1 c-47 1 -155 4 -241 8 l-156 6 -6 -10z" />
    <path d="M2450 2180 c-8 -4 -26 -13 -40 -19 l-25 -11 157 4 c86 2 162 7 169
11 l11 8 -13 8 c-18 11 -239 11 -259 -1z" />
    <path d="M3980 2162 c0 -4 61 -8 135 -9 l134 -2 6 10 6 9 -140 0 c-78 0 -141
-4 -141 -8z" />
    <path d="M4595 2150 l-6 -10 112 0 c62 0 110 2 108 4 -2 2 -50 6 -106 9 l-102
6 -6 -9z" />
    <path d="M5358 2143 c7 -3 16 -2 19 1 4 3 -2 6 -13 5 l-19 -1 13 -5z" />
    <path d="M3545 2128 c-99 -4 -396 -12 -660 -16 l-480 -7 535 -8 c294 -4 607
-8 695 -8 315 -3 978 1 974 5 -2 3 -168 11 -369 20 -201 9 -399 17 -440 19
-41 2 -156 0 -255 -5z" />
    <path d="M5093 2133 c48 -2 125 -2 170 0 45 1 6 3 -88 3 -93 0 -130 -2 -82 -3z" />
    <path d="M2445 2050 l6 -10 229 0 229 0 6 10 6 10 -241 0 -241 0 6 -10z" />
    <path d="M3916 2052 l9 -9 60 7 60 7 -69 2 -70 1 10 -8z" />
    <path d="M5165 2055 c-5 -2 -68 -7 -140 -12 l-130 -7 235 -8 235 -7 63 11 c34
5 65 14 68 19 l5 9 -163 -1 c-90 0 -167 -2 -173 -4z" />
    <path d="M3776 2002 l-5 -9 112 -6 113 -6 49 14 50 13 -157 1 c-86 1 -159 -3
-162 -7z" />
    <path d="M2505 1940 l6 -10 1322 2 1322 2 -255 6 c-140 4 -738 8 -1328 9
l-1073 1 6 -10z" />
    <path d="M2740 1885 l-12 -15 88 1 89 1 -45 9 c-25 4 -59 11 -76 14 l-31 5
-13 -15z" />
    <path d="M3940 1830 l-955 -5 265 -8 c146 -5 634 -7 1085 -4 l820 5 55 10 55
9 -185 -1 c-102 0 -615 -3 -1140 -6z" />
    <path d="M3112 1705 c3 -3 197 -10 430 -15 232 -5 556 -16 718 -25 l295 -15
305 11 c168 6 323 14 345 18 l40 8 -275 6 c-427 10 -1866 20 -1858 12z" />
    <path d="M2790 1671 l-25 -7 30 -7 c17 -3 134 -11 260 -18 l230 -12 70 8 70 9
-75 9 c-41 5 -136 10 -210 11 -74 1 -178 5 -230 8 -52 4 -106 4 -120 -1z" />
    <path d="M3800 1640 c8 -5 47 -10 87 -10 l72 0 6 10 6 10 -93 0 -93 0 15 -10z" />
    <path d="M4205 1611 l-90 -6 124 -7 c68 -5 157 -8 197 -8 72 0 104 12 61 24
-25 6 -157 5 -292 -3z" />
    <path d="M5184 1598 l-7 -11 11 7 c12 7 16 16 8 16 -3 0 -8 -5 -12 -12z" />
    <path d="M4185 1529 c-258 -3 -600 -7 -760 -9 l-290 -2 45 -14 45 -14 933 6
c513 4 929 10 925 14 -13 12 -235 30 -334 28 -52 -1 -305 -5 -564 -9z" />
    <path d="M3370 1455 c0 -2 23 -11 50 -19 l50 -15 438 -1 c240 0 453 3 472 8
l35 9 -185 6 c-253 9 -860 17 -860 12z" />
    <path d="M4055 1371 l-110 -6 90 -8 90 -8 75 15 75 14 -55 -1 c-30 -1 -104 -3
-165 -6z" />
    <path d="M4436 1324 l102 -14 33 15 34 14 -135 -1 -135 0 101 -14z" />
  </g>
</svg>