<?xml version="1.0" standalone="no"?>
<!DOCTYPE svg PUBLIC "-//W3C//DTD SVG 20010904//EN"
 "http://www.w3.org/TR/2001/REC-SVG-20010904/DTD/svg10.dtd">
<svg version="1.0" xmlns="http://www.w3.org/2000/svg"
 width="700.000000pt" height="700.000000pt" viewBox="0 0 700.000000 700.000000"
 preserveAspectRatio="xMidYMid meet">
<metadata>
Created by potrace 1.14, written by Peter Selinger 2001-2017
</metadata>
<g transform="translate(0.000000,700.000000) scale(0.100000,-0.100000)"
fill="#000000" stroke="none">
<path d="M3089 5846 c-2 -2 -34 -6 -71 -10 -227 -21 -462 -98 -687 -223 -184
-103 -427 -324 -553 -503 -106 -149 -239 -433 -263 -562 -2 -11 -7 -28 -10
-38 -3 -10 -8 -29 -10 -42 -3 -13 -9 -45 -14 -73 -16 -81 -25 -192 -24 -317
l0 -116 -51 -24 c-28 -12 -88 -46 -133 -75 -424 -265 -683 -723 -686 -1213 -1
-125 6 -239 17 -271 3 -8 7 -30 10 -49 11 -73 54 -204 103 -313 131 -291 394
-560 688 -702 84 -41 239 -98 295 -109 14 -2 45 -9 70 -14 25 -5 52 -10 60
-10 8 -1 58 -5 110 -9 112 -9 2810 -9 2890 1 110 13 134 17 221 36 534 119
990 494 1213 996 103 234 150 460 150 719 -1 140 -7 196 -39 370 -3 17 -15 62
-26 100 -118 408 -378 759 -731 989 -203 132 -475 235 -693 262 -60 8 -60 8
-85 76 -65 179 -204 405 -340 552 -286 310 -641 496 -1075 561 -44 7 -331 16
-336 11z m251 -591 c190 -20 382 -94 550 -213 74 -53 212 -190 256 -254 16
-24 31 -45 34 -48 5 -5 11 -16 56 -95 37 -68 84 -192 105 -284 34 -139 74
-198 171 -247 37 -19 69 -25 140 -29 139 -7 195 -14 286 -36 418 -97 746 -421
859 -846 36 -136 42 -383 12 -516 -53 -238 -153 -428 -310 -586 -170 -171
-379 -282 -620 -330 -89 -18 -166 -19 -1504 -20 -1487 -1 -1463 -2 -1605 43
-120 37 -251 118 -346 215 -128 129 -202 267 -240 446 -14 67 -20 242 -9 295
30 154 69 254 139 358 119 179 280 295 504 363 102 30 157 62 197 115 57 74
70 142 50 261 -27 159 -33 270 -20 378 47 389 268 713 617 904 51 28 167 76
208 87 8 2 33 8 55 14 131 33 258 41 415 25z"/>
</g>
</svg>
