<?xml version="1.0" encoding="UTF-8" ?>
<!DOCTYPE svg PUBLIC "-//W3C//DTD SVG 1.1//EN" "http://www.w3.org/Graphics/SVG/1.1/DTD/svg11.dtd">
<svg width="363pt" height="351pt" viewBox="0 0 363 351" version="1.1" xmlns="http://www.w3.org/2000/svg">
<g id="#fffdfdff">
<path fill="#fffdfd" opacity="1.00" d=" M 0.00 0.00 L 363.00 0.00 L 363.00 351.00 L 0.00 351.00 L 0.00 0.00 M 81.99 31.98 C 31.78 65.29 0.32 125.17 2.98 185.58 C 8.34 184.25 14.05 183.13 18.24 179.25 C 26.88 172.30 37.43 162.41 49.53 167.55 C 64.31 175.79 76.50 187.76 88.85 199.16 C 95.72 206.11 107.50 208.45 115.82 202.71 C 120.88 200.63 125.53 195.38 131.33 196.62 C 147.62 203.24 156.45 221.00 173.27 226.67 C 179.83 229.38 187.04 229.03 193.99 229.23 C 202.97 229.10 212.18 229.41 220.92 226.95 C 231.84 223.22 243.04 217.38 248.90 206.95 C 253.40 200.41 256.55 191.88 264.32 188.38 C 273.68 184.40 282.37 179.10 291.48 174.64 C 298.07 170.80 306.91 171.30 312.70 176.29 C 326.14 188.19 343.12 194.96 356.96 206.32 C 360.96 183.68 359.21 160.29 354.04 137.99 C 341.47 84.12 301.73 37.64 250.83 16.19 C 196.73 -7.51 130.80 -1.18 81.99 31.98 M 194.62 249.58 C 211.07 252.03 227.96 251.73 244.41 249.48 C 227.83 248.58 211.20 248.81 194.62 249.58 M 76.61 251.88 C 93.68 253.66 110.87 252.91 128.00 253.05 C 142.80 252.93 157.69 253.61 172.41 251.67 C 140.50 250.68 108.50 250.32 76.61 251.88 M 19.52 255.42 C 30.44 256.30 41.48 256.01 52.31 254.28 C 41.38 253.88 30.36 253.68 19.52 255.42 M 239.63 256.69 C 247.54 256.87 255.46 256.68 263.37 256.31 C 255.45 256.13 247.53 256.31 239.63 256.69 M 281.63 257.65 C 292.87 258.16 304.13 258.00 315.37 257.35 C 304.12 256.84 292.86 256.99 281.63 257.65 M 145.67 261.65 C 178.23 262.15 210.81 262.45 243.36 261.44 C 210.87 258.49 178.20 260.38 145.67 261.65 M 269.67 267.57 C 288.55 268.25 307.46 268.31 326.33 267.43 C 307.45 266.74 288.54 266.68 269.67 267.57 M 30.53 277.03 C 44.96 278.59 59.51 277.96 74.00 278.04 C 142.45 277.67 210.92 278.59 279.36 277.57 C 264.91 276.97 250.48 275.84 236.00 275.99 C 176.00 275.98 116.00 276.06 56.00 275.94 C 47.50 275.95 39.00 276.28 30.53 277.03 M 141.65 301.58 C 177.73 303.67 213.88 302.87 250.00 302.99 C 268.45 303.01 286.91 303.22 305.36 302.59 C 279.30 300.26 253.12 301.12 227.00 301.00 C 198.55 301.25 170.08 300.38 141.65 301.58 M 61.58 305.87 C 79.45 307.85 97.50 307.18 115.42 306.37 C 97.69 303.25 79.45 305.23 61.58 305.87 M 191.66 310.57 C 205.54 311.20 219.46 311.18 233.34 310.43 C 219.45 309.80 205.54 309.81 191.66 310.57 M 122.55 327.76 C 134.25 329.69 146.20 328.86 158.00 329.06 C 179.80 328.61 201.70 330.13 223.42 327.67 C 189.82 326.60 156.14 326.47 122.55 327.76 M 173.60 334.51 C 183.44 336.46 193.53 336.06 203.36 334.31 C 193.45 333.89 183.51 334.10 173.60 334.51 M 214.58 337.57 C 223.43 339.14 232.51 339.05 241.37 337.61 C 232.45 337.14 223.51 337.15 214.58 337.57 Z" />
</g>
<g id="#dc0234ff">
<path fill="#dc0234" opacity="1.00" d=" M 81.99 31.98 C 130.80 -1.18 196.73 -7.51 250.83 16.19 C 301.73 37.64 341.47 84.12 354.04 137.99 C 359.21 160.29 360.96 183.68 356.96 206.32 C 343.12 194.96 326.14 188.19 312.70 176.29 C 306.91 171.30 298.07 170.80 291.48 174.64 C 282.37 179.10 273.68 184.40 264.32 188.38 C 256.55 191.88 253.40 200.41 248.90 206.95 C 243.04 217.38 231.84 223.22 220.92 226.95 C 212.18 229.41 202.97 229.10 193.99 229.23 C 187.04 229.03 179.83 229.38 173.27 226.67 C 156.45 221.00 147.62 203.24 131.33 196.62 C 125.53 195.38 120.88 200.63 115.82 202.71 C 107.50 208.45 95.72 206.11 88.85 199.16 C 76.50 187.76 64.31 175.79 49.53 167.55 C 37.43 162.41 26.88 172.30 18.24 179.25 C 14.05 183.13 8.34 184.25 2.98 185.58 C 0.32 125.17 31.78 65.29 81.99 31.98 Z" />
<path fill="#dc0234" opacity="1.00" d=" M 194.62 249.58 C 211.20 248.81 227.83 248.58 244.41 249.48 C 227.96 251.73 211.07 252.03 194.62 249.58 Z" />
<path fill="#dc0234" opacity="1.00" d=" M 76.61 251.88 C 108.50 250.32 140.50 250.68 172.41 251.67 C 157.69 253.61 142.80 252.93 128.00 253.05 C 110.87 252.91 93.68 253.66 76.61 251.88 Z" />
<path fill="#dc0234" opacity="1.00" d=" M 19.52 255.42 C 30.36 253.68 41.38 253.88 52.31 254.28 C 41.48 256.01 30.44 256.30 19.52 255.42 Z" />
<path fill="#dc0234" opacity="1.00" d=" M 239.63 256.69 C 247.53 256.31 255.45 256.13 263.37 256.31 C 255.46 256.68 247.54 256.87 239.63 256.69 Z" />
<path fill="#dc0234" opacity="1.00" d=" M 281.63 257.65 C 292.86 256.99 304.12 256.84 315.37 257.35 C 304.13 258.00 292.87 258.16 281.63 257.65 Z" />
<path fill="#dc0234" opacity="1.00" d=" M 145.67 261.65 C 178.20 260.38 210.87 258.49 243.36 261.44 C 210.81 262.45 178.23 262.15 145.67 261.65 Z" />
<path fill="#dc0234" opacity="1.00" d=" M 269.67 267.57 C 288.54 266.68 307.45 266.74 326.33 267.43 C 307.46 268.31 288.55 268.25 269.67 267.57 Z" />
<path fill="#dc0234" opacity="1.00" d=" M 30.53 277.03 C 39.00 276.28 47.50 275.95 56.00 275.94 C 116.00 276.06 176.00 275.98 236.00 275.99 C 250.48 275.84 264.91 276.97 279.36 277.57 C 210.92 278.59 142.45 277.67 74.00 278.04 C 59.51 277.96 44.96 278.59 30.53 277.03 Z" />
<path fill="#dc0234" opacity="1.00" d=" M 141.65 301.58 C 170.08 300.38 198.55 301.25 227.00 301.00 C 253.12 301.12 279.30 300.26 305.36 302.59 C 286.91 303.22 268.45 303.01 250.00 302.99 C 213.88 302.87 177.73 303.67 141.65 301.58 Z" />
<path fill="#dc0234" opacity="1.00" d=" M 61.58 305.87 C 79.45 305.23 97.69 303.25 115.42 306.37 C 97.50 307.18 79.45 307.85 61.58 305.87 Z" />
<path fill="#dc0234" opacity="1.00" d=" M 191.66 310.57 C 205.54 309.81 219.45 309.80 233.34 310.43 C 219.46 311.18 205.54 311.20 191.66 310.57 Z" />
<path fill="#dc0234" opacity="1.00" d=" M 122.55 327.76 C 156.14 326.47 189.82 326.60 223.42 327.67 C 201.70 330.13 179.80 328.61 158.00 329.06 C 146.20 328.86 134.25 329.69 122.55 327.76 Z" />
<path fill="#dc0234" opacity="1.00" d=" M 173.60 334.51 C 183.51 334.10 193.45 333.89 203.36 334.31 C 193.53 336.06 183.44 336.46 173.60 334.51 Z" />
<path fill="#dc0234" opacity="1.00" d=" M 214.58 337.57 C 223.51 337.15 232.45 337.14 241.37 337.61 C 232.51 339.05 223.43 339.14 214.58 337.57 Z" />
</g>
</svg>
