<?xml version="1.0" encoding="UTF-8" ?>
<!DOCTYPE svg PUBLIC "-//W3C//DTD SVG 1.1//EN" "http://www.w3.org/Graphics/SVG/1.1/DTD/svg11.dtd">
<svg width="454pt" height="439pt" viewBox="0 0 454 439" version="1.1" xmlns="http://www.w3.org/2000/svg">
<g id="#fffcfcff">
</g>
<g id="#db0335fe">
<path fill="#db0335" opacity="1.00" d=" M 187.85 5.74 C 214.86 1.29 242.77 0.45 269.62 6.35 C 305.60 13.42 339.77 29.55 367.96 53.04 C 395.21 75.14 416.49 104.18 430.87 136.09 C 447.30 174.27 452.71 217.26 446.85 258.37 C 434.10 248.71 420.15 240.87 406.69 232.30 C 398.61 227.52 392.25 219.99 383.36 216.63 C 377.63 215.68 371.33 215.15 366.03 218.04 C 354.41 223.69 343.15 230.08 331.44 235.58 C 321.07 240.12 316.91 251.16 310.84 259.89 C 305.18 269.20 295.93 275.71 286.23 280.30 C 273.79 286.41 259.56 286.76 246.00 287.10 C 234.57 287.40 222.65 286.68 212.09 281.92 C 193.83 272.95 182.97 253.65 163.82 246.15 C 153.63 245.92 146.68 255.16 137.00 256.92 C 127.78 259.88 118.24 255.67 111.40 249.58 C 96.56 236.36 82.60 221.76 65.27 211.69 C 59.93 208.39 53.07 206.77 47.03 209.10 C 34.14 212.72 25.83 224.46 13.64 229.46 C 10.13 230.61 6.56 231.54 3.00 232.51 C 0.92 166.40 30.22 100.40 80.00 57.01 C 110.37 30.50 148.01 12.26 187.85 5.74 Z" />
<path fill="#db0335" opacity="1.00" d=" M 244.63 312.60 C 264.43 310.72 284.60 309.62 304.38 312.32 C 284.58 314.60 264.42 315.07 244.63 312.60 Z" />
<path fill="#db0335" opacity="1.00" d=" M 154.65 313.77 C 174.22 314.09 193.81 313.62 213.36 314.59 C 201.01 316.56 188.49 317.14 176.00 317.07 C 150.21 316.87 124.36 317.70 98.64 315.41 C 117.20 312.97 135.99 314.29 154.65 313.77 Z" />
<path fill="#db0335" opacity="1.00" d=" M 25.58 319.37 C 38.41 317.54 51.43 317.83 64.34 318.26 C 51.54 320.34 38.49 320.20 25.58 319.37 Z" />
<path fill="#db0335" opacity="1.00" d=" M 355.61 322.64 C 367.10 320.90 378.77 320.93 390.36 321.54 C 378.88 323.44 367.18 323.02 355.61 322.64 Z" />
<path fill="#db0335" opacity="1.00" d=" M 186.66 327.70 C 224.74 324.10 263.20 324.05 301.36 326.49 C 263.22 329.44 224.87 327.68 186.66 327.70 Z" />
<path fill="#db0335" opacity="1.00" d=" M 341.68 334.62 C 362.54 333.63 383.45 333.76 404.32 334.38 C 383.46 335.37 362.55 335.23 341.68 334.62 Z" />
<path fill="#db0335" opacity="1.00" d=" M 39.63 346.62 C 51.02 345.17 62.53 344.93 74.00 344.94 C 134.00 345.07 194.00 344.97 254.00 345.00 C 283.11 345.14 312.27 344.23 341.31 346.65 C 333.26 347.77 325.11 347.94 317.00 348.06 C 237.00 347.96 157.00 347.97 77.00 348.05 C 64.54 347.93 51.99 348.65 39.63 346.62 Z" />
<path fill="#db0335" opacity="1.00" d=" M 179.68 377.64 C 212.02 374.53 244.57 376.57 277.00 376.00 C 311.11 376.51 345.40 374.45 379.37 378.41 C 342.60 379.70 305.79 378.68 269.00 379.00 C 239.22 379.04 209.42 379.34 179.68 377.64 Z" />
<path fill="#db0335" opacity="1.00" d=" M 78.64 382.71 C 99.82 381.61 121.55 378.47 142.50 383.12 C 121.26 384.15 99.81 385.22 78.64 382.71 Z" />
<path fill="#db0335" opacity="1.00" d=" M 242.64 388.57 C 257.86 387.21 273.13 387.07 288.35 388.56 C 273.12 389.18 257.86 389.21 242.64 388.57 Z" />
<path fill="#db0335" opacity="1.00" d=" M 155.68 410.35 C 172.03 408.22 188.57 409.08 205.00 408.99 C 228.45 409.24 251.94 408.30 275.37 409.77 C 252.07 413.15 228.45 411.73 205.00 412.02 C 188.56 411.83 172.00 412.91 155.68 410.35 Z" />
<path fill="#db0335" opacity="1.00" d=" M 217.57 418.59 C 229.50 417.91 241.46 417.90 253.39 418.43 C 241.55 419.98 229.36 421.03 217.57 418.59 Z" />
<path fill="#db0335" opacity="1.00" d=" M 269.60 422.61 C 279.85 422.04 290.14 422.01 300.40 422.43 C 290.21 423.94 279.79 424.28 269.60 422.61 Z" />
</g>
</svg>
